<svg width="10" height="10" viewBox="0 0 10 10" fill="none" xmlns="http://www.w3.org/2000/svg">
<path d="M3.53333 4.42222L6.46667 2.91111M3.53333 5.57778L6.46667 7.08889M1 5C1 5.35362 1.14048 5.69276 1.39052 5.94281C1.64057 6.19286 1.97971 6.33333 2.33333 6.33333C2.68696 6.33333 3.02609 6.19286 3.27614 5.94281C3.52619 5.69276 3.66667 5.35362 3.66667 5C3.66667 4.64638 3.52619 4.30724 3.27614 4.05719C3.02609 3.80714 2.68696 3.66667 2.33333 3.66667C1.97971 3.66667 1.64057 3.80714 1.39052 4.05719C1.14048 4.30724 1 4.64638 1 5ZM6.33333 2.33333C6.33333 2.68696 6.47381 3.02609 6.72386 3.27614C6.97391 3.52619 7.31304 3.66667 7.66667 3.66667C8.02029 3.66667 8.35943 3.52619 8.60948 3.27614C8.85952 3.02609 9 2.68696 9 2.33333C9 1.97971 8.85952 1.64057 8.60948 1.39052C8.35943 1.14048 8.02029 1 7.66667 1C7.31304 1 6.97391 1.14048 6.72386 1.39052C6.47381 1.64057 6.33333 1.97971 6.33333 2.33333ZM6.33333 7.66667C6.33333 8.02029 6.47381 8.35943 6.72386 8.60948C6.97391 8.85952 7.31304 9 7.66667 9C8.02029 9 8.35943 8.85952 8.60948 8.60948C8.85952 8.35943 9 8.02029 9 7.66667C9 7.31304 8.85952 6.97391 8.60948 6.72386C8.35943 6.47381 8.02029 6.33333 7.66667 6.33333C7.31304 6.33333 6.97391 6.47381 6.72386 6.72386C6.47381 6.97391 6.33333 7.31304 6.33333 7.66667Z" stroke="#828282" stroke-linecap="round" stroke-linejoin="round"/>
</svg>
